<?xml version="1.0" standalone="no"?>
<!DOCTYPE svg PUBLIC "-//W3C//DTD SVG 20010904//EN"
 "http://www.w3.org/TR/2001/REC-SVG-20010904/DTD/svg10.dtd">
<svg version="1.0" xmlns="http://www.w3.org/2000/svg"
 width="700.000000pt" height="700.000000pt" viewBox="0 0 700.000000 700.000000"
 preserveAspectRatio="xMidYMid meet">
<metadata>
Created by potrace 1.11, written by Peter Selinger 2001-2013
</metadata>
<g transform="translate(0.000000,700.000000) scale(0.100000,-0.100000)"
fill="#000000" stroke="none">
<path d="M900 6301 l0 -701 1063 0 c985 0 1222 -3 1287 -15 14 -3 43 -7 65
-10 147 -19 350 -77 515 -148 515 -223 922 -648 1128 -1177 44 -114 85 -259
101 -360 6 -36 13 -76 16 -90 18 -90 25 -355 12 -490 -37 -395 -185 -773 -425
-1090 -64 -83 -248 -274 -332 -342 -73 -60 -245 -178 -259 -178 -6 0 -11 -3
-11 -7 0 -5 -10 -13 -23 -19 -12 -6 -60 -30 -107 -54 -47 -23 -107 -51 -135
-61 -27 -11 -59 -24 -70 -29 -22 -10 -183 -59 -216 -65 -11 -2 -29 -7 -39 -10
-20 -6 -21 -6 -120 -23 -36 -7 -81 -15 -100 -19 -19 -3 -555 -8 -1190 -10
-635 -2 -1156 -5 -1157 -7 -2 -2 -4 -317 -6 -700 l-2 -697 1210 4 c666 2 1219
6 1230 9 11 3 56 9 99 13 43 4 86 8 95 10 21 4 87 14 136 21 131 19 390 83
560 139 149 49 376 140 435 174 9 4 66 35 128 67 146 76 161 85 199 112 17 12
33 22 36 22 11 0 213 143 316 224 103 80 373 339 465 446 168 194 340 457 458
700 44 91 85 173 89 182 33 65 121 333 159 484 125 485 145 968 64 1494 -34
224 -108 486 -203 724 -469 1172 -1568 1989 -2886 2146 -44 5 -100 12 -125 16
-25 4 -588 9 -1252 11 l-1208 4 0 -700z"/>
<path d="M1100 4910 c-311 -64 -565 -299 -674 -622 -8 -26 -18 -60 -21 -75 -3
-15 -8 -35 -9 -43 -23 -99 -23 -276 -1 -390 22 -113 105 -317 166 -408 81
-120 351 -355 629 -547 47 -33 90 -63 95 -67 6 -5 87 -63 180 -129 197 -140
282 -208 374 -299 147 -144 227 -250 307 -400 8 -14 16 -24 19 -23 4 1 20 28
37 60 65 124 232 321 383 453 60 52 205 159 435 321 113 79 212 149 220 156 8
7 44 34 80 60 177 130 352 289 428 389 42 55 116 205 148 302 140 414 3 866
-338 1115 -143 104 -304 159 -480 163 -396 9 -750 -259 -868 -656 -27 -88 -22
-80 -49 -85 -13 -2 -21 1 -21 9 0 26 -52 172 -83 231 -70 135 -185 271 -287
340 -25 16 -47 32 -50 35 -12 14 -160 80 -210 94 -88 25 -109 28 -220 31 -72
2 -132 -3 -190 -15z"/>
</g>
</svg>
